<?xml version="1.0" ?><svg enable-background="new 0 0 32 32" version="1.1" viewBox="0 0 32 32" xml:space="preserve" xmlns="http://www.w3.org/2000/svg" xmlns:xlink="http://www.w3.org/1999/xlink"><g id="OUTLINE_copy_2"><g><path d="M16,0C7.164,0,0,7.163,0,16c0,8.836,7.164,16,16,16s16-7.164,16-16C32,7.163,24.836,0,16,0z M11.2,19.734    c-2.062,0-3.734-1.672-3.734-3.734s1.672-3.734,3.734-3.734c2.062,0,3.734,1.672,3.734,3.734S13.262,19.734,11.2,19.734z     M20.8,19.734c-2.062,0-3.734-1.672-3.734-3.734s1.672-3.734,3.734-3.734c2.062,0,3.734,1.672,3.734,3.734    S22.862,19.734,20.8,19.734z"/></g></g></svg>